<mxfile host="app.diagrams.net" modified="2022-02-28T03:31:49.374Z" agent="5.0 (Macintosh; Intel Mac OS X 10_15_7) AppleWebKit/537.36 (KHTML, like Gecko) Chrome/98.0.4758.109 Safari/537.36" etag="86hQorKZ9db4qpppFljq" version="16.6.3" type="github" pages="2">
  <diagram id="_5m3srf5jCz5CyNSayfB" name="Page-1">
    <mxGraphModel dx="1577" dy="1977" grid="1" gridSize="10" guides="1" tooltips="1" connect="1" arrows="1" fold="1" page="1" pageScale="1" pageWidth="850" pageHeight="1100" math="0" shadow="0">
      <root>
        <mxCell id="0" />
        <mxCell id="1" parent="0" />
        <mxCell id="sJbma0cb8wTK5Nyl8_7U-1" value="Product Owner" style="swimlane;html=1;startSize=20;fontStyle=0;collapsible=0;horizontal=0;swimlaneLine=1;swimlaneFillColor=#ffffff;strokeWidth=2;" parent="1" vertex="1">
          <mxGeometry x="110" y="-70" width="1380" height="220" as="geometry" />
        </mxCell>
        <mxCell id="sJbma0cb8wTK5Nyl8_7U-4" value="" style="points=[[0.145,0.145,0],[0.5,0,0],[0.855,0.145,0],[1,0.5,0],[0.855,0.855,0],[0.5,1,0],[0.145,0.855,0],[0,0.5,0]];shape=mxgraph.bpmn.event;html=1;verticalLabelPosition=bottom;labelBackgroundColor=#ffffff;verticalAlign=top;align=center;perimeter=ellipsePerimeter;outlineConnect=0;aspect=fixed;outline=standard;symbol=general;" parent="sJbma0cb8wTK5Nyl8_7U-1" vertex="1">
          <mxGeometry x="40" y="20" width="50" height="50" as="geometry" />
        </mxCell>
        <mxCell id="sJbma0cb8wTK5Nyl8_7U-5" value="Groom" style="points=[[0.25,0,0],[0.5,0,0],[0.75,0,0],[1,0.25,0],[1,0.5,0],[1,0.75,0],[0.75,1,0],[0.5,1,0],[0.25,1,0],[0,0.75,0],[0,0.5,0],[0,0.25,0]];shape=mxgraph.bpmn.task;whiteSpace=wrap;rectStyle=rounded;size=10;taskMarker=abstract;" parent="sJbma0cb8wTK5Nyl8_7U-1" vertex="1">
          <mxGeometry x="130" y="99" width="120" height="80" as="geometry" />
        </mxCell>
        <mxCell id="ajSq1QWMYXaIRyncZ6ZC-11" style="edgeStyle=orthogonalEdgeStyle;rounded=0;orthogonalLoop=1;jettySize=auto;html=1;exitX=1;exitY=0.5;exitDx=0;exitDy=0;exitPerimeter=0;entryX=0;entryY=0.5;entryDx=0;entryDy=0;entryPerimeter=0;" edge="1" parent="sJbma0cb8wTK5Nyl8_7U-1" source="ajSq1QWMYXaIRyncZ6ZC-8" target="ajSq1QWMYXaIRyncZ6ZC-10">
          <mxGeometry relative="1" as="geometry" />
        </mxCell>
        <mxCell id="ajSq1QWMYXaIRyncZ6ZC-8" value="Review Story" style="points=[[0.25,0,0],[0.5,0,0],[0.75,0,0],[1,0.25,0],[1,0.5,0],[1,0.75,0],[0.75,1,0],[0.5,1,0],[0.25,1,0],[0,0.75,0],[0,0.5,0],[0,0.25,0]];shape=mxgraph.bpmn.task;whiteSpace=wrap;rectStyle=rounded;size=10;taskMarker=abstract;" vertex="1" parent="sJbma0cb8wTK5Nyl8_7U-1">
          <mxGeometry x="894" y="99" width="120" height="80" as="geometry" />
        </mxCell>
        <mxCell id="ajSq1QWMYXaIRyncZ6ZC-13" style="edgeStyle=orthogonalEdgeStyle;rounded=0;orthogonalLoop=1;jettySize=auto;html=1;exitX=1;exitY=0.5;exitDx=0;exitDy=0;exitPerimeter=0;entryX=0;entryY=0.5;entryDx=0;entryDy=0;entryPerimeter=0;" edge="1" parent="sJbma0cb8wTK5Nyl8_7U-1" source="ajSq1QWMYXaIRyncZ6ZC-10" target="ajSq1QWMYXaIRyncZ6ZC-12">
          <mxGeometry relative="1" as="geometry" />
        </mxCell>
        <mxCell id="ajSq1QWMYXaIRyncZ6ZC-21" value="Yes" style="edgeLabel;html=1;align=center;verticalAlign=middle;resizable=0;points=[];" vertex="1" connectable="0" parent="ajSq1QWMYXaIRyncZ6ZC-13">
          <mxGeometry x="0.0867" relative="1" as="geometry">
            <mxPoint as="offset" />
          </mxGeometry>
        </mxCell>
        <mxCell id="ajSq1QWMYXaIRyncZ6ZC-10" value="" style="points=[[0.25,0.25,0],[0.5,0,0],[0.75,0.25,0],[1,0.5,0],[0.75,0.75,0],[0.5,1,0],[0.25,0.75,0],[0,0.5,0]];shape=mxgraph.bpmn.gateway2;html=1;verticalLabelPosition=bottom;labelBackgroundColor=#ffffff;verticalAlign=top;align=center;perimeter=rhombusPerimeter;outlineConnect=0;outline=none;symbol=none;gwType=exclusive;" vertex="1" parent="sJbma0cb8wTK5Nyl8_7U-1">
          <mxGeometry x="1080" y="114" width="50" height="50" as="geometry" />
        </mxCell>
        <mxCell id="jja5alJUXIAyAUdd--PY-8" value="DOD OK?" style="text;html=1;align=center;verticalAlign=middle;resizable=0;points=[];autosize=1;strokeColor=none;fillColor=none;" parent="sJbma0cb8wTK5Nyl8_7U-1" vertex="1">
          <mxGeometry x="1070" y="170" width="70" height="20" as="geometry" />
        </mxCell>
        <mxCell id="ajSq1QWMYXaIRyncZ6ZC-12" value="Mark Task Complete" style="points=[[0.25,0,0],[0.5,0,0],[0.75,0,0],[1,0.25,0],[1,0.5,0],[1,0.75,0],[0.75,1,0],[0.5,1,0],[0.25,1,0],[0,0.75,0],[0,0.5,0],[0,0.25,0]];shape=mxgraph.bpmn.task;whiteSpace=wrap;rectStyle=rounded;size=10;taskMarker=abstract;" vertex="1" parent="sJbma0cb8wTK5Nyl8_7U-1">
          <mxGeometry x="1180" y="99" width="120" height="80" as="geometry" />
        </mxCell>
        <mxCell id="sJbma0cb8wTK5Nyl8_7U-2" value="Scrum Master" style="swimlane;html=1;startSize=20;fontStyle=0;collapsible=0;horizontal=0;swimlaneLine=1;swimlaneFillColor=#ffffff;strokeWidth=2;" parent="1" vertex="1">
          <mxGeometry x="110" y="150" width="1380" height="130" as="geometry" />
        </mxCell>
        <mxCell id="jja5alJUXIAyAUdd--PY-1" value="Update Story Point" style="points=[[0.25,0,0],[0.5,0,0],[0.75,0,0],[1,0.25,0],[1,0.5,0],[1,0.75,0],[0.75,1,0],[0.5,1,0],[0.25,1,0],[0,0.75,0],[0,0.5,0],[0,0.25,0]];shape=mxgraph.bpmn.task;whiteSpace=wrap;rectStyle=rounded;size=10;taskMarker=abstract;" parent="sJbma0cb8wTK5Nyl8_7U-2" vertex="1">
          <mxGeometry x="130" y="18" width="120" height="80" as="geometry" />
        </mxCell>
        <mxCell id="ajSq1QWMYXaIRyncZ6ZC-3" value="Resolve impediment" style="points=[[0.25,0,0],[0.5,0,0],[0.75,0,0],[1,0.25,0],[1,0.5,0],[1,0.75,0],[0.75,1,0],[0.5,1,0],[0.25,1,0],[0,0.75,0],[0,0.5,0],[0,0.25,0]];shape=mxgraph.bpmn.task;whiteSpace=wrap;rectStyle=rounded;size=10;taskMarker=abstract;" vertex="1" parent="sJbma0cb8wTK5Nyl8_7U-2">
          <mxGeometry x="575" y="14" width="120" height="80" as="geometry" />
        </mxCell>
        <mxCell id="ajSq1QWMYXaIRyncZ6ZC-6" value="Mark Development Complete" style="points=[[0.25,0,0],[0.5,0,0],[0.75,0,0],[1,0.25,0],[1,0.5,0],[1,0.75,0],[0.75,1,0],[0.5,1,0],[0.25,1,0],[0,0.75,0],[0,0.5,0],[0,0.25,0]];shape=mxgraph.bpmn.task;whiteSpace=wrap;rectStyle=rounded;size=10;taskMarker=abstract;" vertex="1" parent="sJbma0cb8wTK5Nyl8_7U-2">
          <mxGeometry x="894" y="13" width="120" height="80" as="geometry" />
        </mxCell>
        <mxCell id="sJbma0cb8wTK5Nyl8_7U-3" value="Developer" style="swimlane;html=1;startSize=20;fontStyle=0;collapsible=0;horizontal=0;swimlaneLine=1;swimlaneFillColor=#ffffff;strokeWidth=2;" parent="1" vertex="1">
          <mxGeometry x="110" y="260" width="1380" height="300" as="geometry" />
        </mxCell>
        <mxCell id="jja5alJUXIAyAUdd--PY-31" style="edgeStyle=orthogonalEdgeStyle;rounded=0;orthogonalLoop=1;jettySize=auto;html=1;exitX=0.5;exitY=1;exitDx=0;exitDy=0;exitPerimeter=0;entryX=0.5;entryY=0;entryDx=0;entryDy=0;entryPerimeter=0;" parent="sJbma0cb8wTK5Nyl8_7U-3" source="jja5alJUXIAyAUdd--PY-2" target="jja5alJUXIAyAUdd--PY-28" edge="1">
          <mxGeometry relative="1" as="geometry" />
        </mxCell>
        <mxCell id="jja5alJUXIAyAUdd--PY-2" value="Pull Story" style="points=[[0.25,0,0],[0.5,0,0],[0.75,0,0],[1,0.25,0],[1,0.5,0],[1,0.75,0],[0.75,1,0],[0.5,1,0],[0.25,1,0],[0,0.75,0],[0,0.5,0],[0,0.25,0]];shape=mxgraph.bpmn.task;whiteSpace=wrap;rectStyle=rounded;size=10;taskMarker=abstract;" parent="sJbma0cb8wTK5Nyl8_7U-3" vertex="1">
          <mxGeometry x="130" y="90" width="120" height="80" as="geometry" />
        </mxCell>
        <mxCell id="ajSq1QWMYXaIRyncZ6ZC-1" style="edgeStyle=orthogonalEdgeStyle;rounded=0;orthogonalLoop=1;jettySize=auto;html=1;exitX=1;exitY=0.5;exitDx=0;exitDy=0;exitPerimeter=0;entryX=0;entryY=0.5;entryDx=0;entryDy=0;entryPerimeter=0;" edge="1" parent="sJbma0cb8wTK5Nyl8_7U-3" source="jja5alJUXIAyAUdd--PY-3" target="jja5alJUXIAyAUdd--PY-13">
          <mxGeometry relative="1" as="geometry" />
        </mxCell>
        <mxCell id="jja5alJUXIAyAUdd--PY-3" value="Create Development Task" style="points=[[0.25,0,0],[0.5,0,0],[0.75,0,0],[1,0.25,0],[1,0.5,0],[1,0.75,0],[0.75,1,0],[0.5,1,0],[0.25,1,0],[0,0.75,0],[0,0.5,0],[0,0.25,0]];shape=mxgraph.bpmn.task;whiteSpace=wrap;rectStyle=rounded;size=10;taskMarker=abstract;" parent="sJbma0cb8wTK5Nyl8_7U-3" vertex="1">
          <mxGeometry x="280" y="195" width="120" height="80" as="geometry" />
        </mxCell>
        <mxCell id="jja5alJUXIAyAUdd--PY-12" value="Yes" style="edgeStyle=orthogonalEdgeStyle;rounded=0;orthogonalLoop=1;jettySize=auto;html=1;exitX=0.5;exitY=0;exitDx=0;exitDy=0;exitPerimeter=0;entryX=0.5;entryY=1;entryDx=0;entryDy=0;entryPerimeter=0;" parent="sJbma0cb8wTK5Nyl8_7U-3" source="jja5alJUXIAyAUdd--PY-7" target="jja5alJUXIAyAUdd--PY-11" edge="1">
          <mxGeometry relative="1" as="geometry" />
        </mxCell>
        <mxCell id="jja5alJUXIAyAUdd--PY-15" value="No" style="edgeStyle=orthogonalEdgeStyle;rounded=0;orthogonalLoop=1;jettySize=auto;html=1;exitX=1;exitY=0.5;exitDx=0;exitDy=0;exitPerimeter=0;entryX=0;entryY=0.5;entryDx=0;entryDy=0;entryPerimeter=0;" parent="sJbma0cb8wTK5Nyl8_7U-3" source="jja5alJUXIAyAUdd--PY-7" target="jja5alJUXIAyAUdd--PY-52" edge="1">
          <mxGeometry relative="1" as="geometry">
            <mxPoint x="706" y="236" as="targetPoint" />
          </mxGeometry>
        </mxCell>
        <mxCell id="jja5alJUXIAyAUdd--PY-7" value="" style="points=[[0.25,0.25,0],[0.5,0,0],[0.75,0.25,0],[1,0.5,0],[0.75,0.75,0],[0.5,1,0],[0.25,0.75,0],[0,0.5,0]];shape=mxgraph.bpmn.gateway2;html=1;verticalLabelPosition=bottom;labelBackgroundColor=#ffffff;verticalAlign=top;align=center;perimeter=rhombusPerimeter;outlineConnect=0;outline=none;symbol=none;gwType=exclusive;" parent="sJbma0cb8wTK5Nyl8_7U-3" vertex="1">
          <mxGeometry x="610" y="210" width="50" height="50" as="geometry" />
        </mxCell>
        <mxCell id="jja5alJUXIAyAUdd--PY-11" value="flag impediment" style="points=[[0.25,0,0],[0.5,0,0],[0.75,0,0],[1,0.25,0],[1,0.5,0],[1,0.75,0],[0.75,1,0],[0.5,1,0],[0.25,1,0],[0,0.75,0],[0,0.5,0],[0,0.25,0]];shape=mxgraph.bpmn.task;whiteSpace=wrap;rectStyle=rounded;size=10;taskMarker=abstract;" parent="sJbma0cb8wTK5Nyl8_7U-3" vertex="1">
          <mxGeometry x="575" y="90" width="120" height="80" as="geometry" />
        </mxCell>
        <mxCell id="jja5alJUXIAyAUdd--PY-13" value="Write Product Code" style="points=[[0.25,0,0],[0.5,0,0],[0.75,0,0],[1,0.25,0],[1,0.5,0],[1,0.75,0],[0.75,1,0],[0.5,1,0],[0.25,1,0],[0,0.75,0],[0,0.5,0],[0,0.25,0]];shape=mxgraph.bpmn.task;whiteSpace=wrap;rectStyle=rounded;size=10;taskMarker=abstract;" parent="sJbma0cb8wTK5Nyl8_7U-3" vertex="1">
          <mxGeometry x="450" y="195" width="120" height="80" as="geometry" />
        </mxCell>
        <mxCell id="jja5alJUXIAyAUdd--PY-29" style="edgeStyle=orthogonalEdgeStyle;rounded=0;orthogonalLoop=1;jettySize=auto;html=1;exitX=1;exitY=0.5;exitDx=0;exitDy=0;exitPerimeter=0;" parent="sJbma0cb8wTK5Nyl8_7U-3" source="jja5alJUXIAyAUdd--PY-28" target="jja5alJUXIAyAUdd--PY-3" edge="1">
          <mxGeometry relative="1" as="geometry" />
        </mxCell>
        <mxCell id="jja5alJUXIAyAUdd--PY-28" value="" style="points=[[0.25,0.25,0],[0.5,0,0],[0.75,0.25,0],[1,0.5,0],[0.75,0.75,0],[0.5,1,0],[0.25,0.75,0],[0,0.5,0]];shape=mxgraph.bpmn.gateway2;html=1;verticalLabelPosition=bottom;labelBackgroundColor=#ffffff;verticalAlign=top;align=center;perimeter=rhombusPerimeter;outlineConnect=0;outline=none;symbol=none;gwType=parallel;" parent="sJbma0cb8wTK5Nyl8_7U-3" vertex="1">
          <mxGeometry x="165" y="210" width="50" height="50" as="geometry" />
        </mxCell>
        <mxCell id="jja5alJUXIAyAUdd--PY-52" value="Mark Task Complete" style="points=[[0.25,0,0],[0.5,0,0],[0.75,0,0],[1,0.25,0],[1,0.5,0],[1,0.75,0],[0.75,1,0],[0.5,1,0],[0.25,1,0],[0,0.75,0],[0,0.5,0],[0,0.25,0]];shape=mxgraph.bpmn.task;whiteSpace=wrap;rectStyle=rounded;size=10;taskMarker=abstract;" parent="sJbma0cb8wTK5Nyl8_7U-3" vertex="1">
          <mxGeometry x="740" y="195" width="120" height="80" as="geometry" />
        </mxCell>
        <mxCell id="jja5alJUXIAyAUdd--PY-38" value="" style="points=[[0.25,0.25,0],[0.5,0,0],[0.75,0.25,0],[1,0.5,0],[0.75,0.75,0],[0.5,1,0],[0.25,0.75,0],[0,0.5,0]];shape=mxgraph.bpmn.gateway2;html=1;verticalLabelPosition=bottom;labelBackgroundColor=#ffffff;verticalAlign=top;align=center;perimeter=rhombusPerimeter;outlineConnect=0;outline=none;symbol=none;gwType=parallel;" parent="sJbma0cb8wTK5Nyl8_7U-3" vertex="1">
          <mxGeometry x="930" y="210" width="50" height="50" as="geometry" />
        </mxCell>
        <mxCell id="jja5alJUXIAyAUdd--PY-54" style="edgeStyle=orthogonalEdgeStyle;rounded=0;orthogonalLoop=1;jettySize=auto;html=1;exitX=1;exitY=0.5;exitDx=0;exitDy=0;exitPerimeter=0;" parent="sJbma0cb8wTK5Nyl8_7U-3" source="jja5alJUXIAyAUdd--PY-52" target="jja5alJUXIAyAUdd--PY-38" edge="1">
          <mxGeometry relative="1" as="geometry" />
        </mxCell>
        <mxCell id="jja5alJUXIAyAUdd--PY-9" style="edgeStyle=orthogonalEdgeStyle;rounded=0;orthogonalLoop=1;jettySize=auto;html=1;exitX=0.5;exitY=1;exitDx=0;exitDy=0;exitPerimeter=0;entryX=0.5;entryY=0;entryDx=0;entryDy=0;entryPerimeter=0;" parent="1" source="sJbma0cb8wTK5Nyl8_7U-5" target="jja5alJUXIAyAUdd--PY-1" edge="1">
          <mxGeometry relative="1" as="geometry" />
        </mxCell>
        <mxCell id="jja5alJUXIAyAUdd--PY-10" style="edgeStyle=orthogonalEdgeStyle;rounded=0;orthogonalLoop=1;jettySize=auto;html=1;exitX=0.5;exitY=1;exitDx=0;exitDy=0;exitPerimeter=0;entryX=0.5;entryY=0;entryDx=0;entryDy=0;entryPerimeter=0;" parent="1" source="jja5alJUXIAyAUdd--PY-1" target="jja5alJUXIAyAUdd--PY-2" edge="1">
          <mxGeometry relative="1" as="geometry" />
        </mxCell>
        <mxCell id="jja5alJUXIAyAUdd--PY-16" value="Tester" style="swimlane;html=1;startSize=20;fontStyle=0;collapsible=0;horizontal=0;swimlaneLine=1;swimlaneFillColor=#ffffff;strokeWidth=2;" parent="1" vertex="1">
          <mxGeometry x="110" y="560" width="1380" height="160" as="geometry" />
        </mxCell>
        <mxCell id="jja5alJUXIAyAUdd--PY-19" value="Create Unit Testing Task" style="points=[[0.25,0,0],[0.5,0,0],[0.75,0,0],[1,0.25,0],[1,0.5,0],[1,0.75,0],[0.75,1,0],[0.5,1,0],[0.25,1,0],[0,0.75,0],[0,0.5,0],[0,0.25,0]];shape=mxgraph.bpmn.task;whiteSpace=wrap;rectStyle=rounded;size=10;taskMarker=abstract;" parent="jja5alJUXIAyAUdd--PY-16" vertex="1">
          <mxGeometry x="280" y="36" width="120" height="80" as="geometry" />
        </mxCell>
        <mxCell id="jja5alJUXIAyAUdd--PY-24" value="" style="edgeStyle=orthogonalEdgeStyle;rounded=0;orthogonalLoop=1;jettySize=auto;html=1;entryX=0;entryY=0.5;entryDx=0;entryDy=0;entryPerimeter=0;" parent="jja5alJUXIAyAUdd--PY-16" source="jja5alJUXIAyAUdd--PY-19" target="jja5alJUXIAyAUdd--PY-26" edge="1">
          <mxGeometry relative="1" as="geometry">
            <mxPoint x="470" y="235" as="targetPoint" />
          </mxGeometry>
        </mxCell>
        <mxCell id="jja5alJUXIAyAUdd--PY-26" value="Write Unit Test Code" style="points=[[0.25,0,0],[0.5,0,0],[0.75,0,0],[1,0.25,0],[1,0.5,0],[1,0.75,0],[0.75,1,0],[0.5,1,0],[0.25,1,0],[0,0.75,0],[0,0.5,0],[0,0.25,0]];shape=mxgraph.bpmn.task;whiteSpace=wrap;rectStyle=rounded;size=10;taskMarker=abstract;" parent="jja5alJUXIAyAUdd--PY-16" vertex="1">
          <mxGeometry x="460" y="36" width="120" height="80" as="geometry" />
        </mxCell>
        <mxCell id="jja5alJUXIAyAUdd--PY-46" value="Mark Task complete" style="points=[[0.25,0,0],[0.5,0,0],[0.75,0,0],[1,0.25,0],[1,0.5,0],[1,0.75,0],[0.75,1,0],[0.5,1,0],[0.25,1,0],[0,0.75,0],[0,0.5,0],[0,0.25,0]];shape=mxgraph.bpmn.task;whiteSpace=wrap;rectStyle=rounded;size=10;taskMarker=abstract;" parent="jja5alJUXIAyAUdd--PY-16" vertex="1">
          <mxGeometry x="650" y="36" width="120" height="80" as="geometry" />
        </mxCell>
        <mxCell id="jja5alJUXIAyAUdd--PY-47" value="" style="edgeStyle=orthogonalEdgeStyle;rounded=0;orthogonalLoop=1;jettySize=auto;html=1;" parent="jja5alJUXIAyAUdd--PY-16" source="jja5alJUXIAyAUdd--PY-26" target="jja5alJUXIAyAUdd--PY-46" edge="1">
          <mxGeometry relative="1" as="geometry" />
        </mxCell>
        <mxCell id="jja5alJUXIAyAUdd--PY-30" style="edgeStyle=orthogonalEdgeStyle;rounded=0;orthogonalLoop=1;jettySize=auto;html=1;exitX=0.5;exitY=1;exitDx=0;exitDy=0;exitPerimeter=0;entryX=-0.004;entryY=0.6;entryDx=0;entryDy=0;entryPerimeter=0;" parent="1" source="jja5alJUXIAyAUdd--PY-28" target="jja5alJUXIAyAUdd--PY-19" edge="1">
          <mxGeometry relative="1" as="geometry" />
        </mxCell>
        <mxCell id="jja5alJUXIAyAUdd--PY-32" value="Security" style="swimlane;html=1;startSize=20;fontStyle=0;collapsible=0;horizontal=0;swimlaneLine=1;swimlaneFillColor=#ffffff;strokeWidth=2;" parent="1" vertex="1">
          <mxGeometry x="110" y="710" width="1380" height="160" as="geometry" />
        </mxCell>
        <mxCell id="jja5alJUXIAyAUdd--PY-33" value="Create Security Task" style="points=[[0.25,0,0],[0.5,0,0],[0.75,0,0],[1,0.25,0],[1,0.5,0],[1,0.75,0],[0.75,1,0],[0.5,1,0],[0.25,1,0],[0,0.75,0],[0,0.5,0],[0,0.25,0]];shape=mxgraph.bpmn.task;whiteSpace=wrap;rectStyle=rounded;size=10;taskMarker=abstract;" parent="jja5alJUXIAyAUdd--PY-32" vertex="1">
          <mxGeometry x="280" y="36" width="120" height="80" as="geometry" />
        </mxCell>
        <mxCell id="jja5alJUXIAyAUdd--PY-34" value="" style="edgeStyle=orthogonalEdgeStyle;rounded=0;orthogonalLoop=1;jettySize=auto;html=1;entryX=0;entryY=0.5;entryDx=0;entryDy=0;entryPerimeter=0;" parent="jja5alJUXIAyAUdd--PY-32" source="jja5alJUXIAyAUdd--PY-33" target="jja5alJUXIAyAUdd--PY-35" edge="1">
          <mxGeometry relative="1" as="geometry">
            <mxPoint x="470" y="235" as="targetPoint" />
          </mxGeometry>
        </mxCell>
        <mxCell id="jja5alJUXIAyAUdd--PY-35" value="Write Security Code" style="points=[[0.25,0,0],[0.5,0,0],[0.75,0,0],[1,0.25,0],[1,0.5,0],[1,0.75,0],[0.75,1,0],[0.5,1,0],[0.25,1,0],[0,0.75,0],[0,0.5,0],[0,0.25,0]];shape=mxgraph.bpmn.task;whiteSpace=wrap;rectStyle=rounded;size=10;taskMarker=abstract;" parent="jja5alJUXIAyAUdd--PY-32" vertex="1">
          <mxGeometry x="460" y="36" width="120" height="80" as="geometry" />
        </mxCell>
        <mxCell id="jja5alJUXIAyAUdd--PY-55" value="Mark Task Complete" style="points=[[0.25,0,0],[0.5,0,0],[0.75,0,0],[1,0.25,0],[1,0.5,0],[1,0.75,0],[0.75,1,0],[0.5,1,0],[0.25,1,0],[0,0.75,0],[0,0.5,0],[0,0.25,0]];shape=mxgraph.bpmn.task;whiteSpace=wrap;rectStyle=rounded;size=10;taskMarker=abstract;" parent="jja5alJUXIAyAUdd--PY-32" vertex="1">
          <mxGeometry x="640" y="36" width="120" height="80" as="geometry" />
        </mxCell>
        <mxCell id="jja5alJUXIAyAUdd--PY-56" value="" style="edgeStyle=orthogonalEdgeStyle;rounded=0;orthogonalLoop=1;jettySize=auto;html=1;" parent="jja5alJUXIAyAUdd--PY-32" source="jja5alJUXIAyAUdd--PY-35" target="jja5alJUXIAyAUdd--PY-55" edge="1">
          <mxGeometry relative="1" as="geometry" />
        </mxCell>
        <mxCell id="jja5alJUXIAyAUdd--PY-36" style="edgeStyle=orthogonalEdgeStyle;rounded=0;orthogonalLoop=1;jettySize=auto;html=1;exitX=0;exitY=0.5;exitDx=0;exitDy=0;exitPerimeter=0;entryX=0;entryY=0.5;entryDx=0;entryDy=0;entryPerimeter=0;" parent="1" source="jja5alJUXIAyAUdd--PY-28" target="jja5alJUXIAyAUdd--PY-33" edge="1">
          <mxGeometry relative="1" as="geometry" />
        </mxCell>
        <mxCell id="jja5alJUXIAyAUdd--PY-40" style="edgeStyle=orthogonalEdgeStyle;rounded=0;orthogonalLoop=1;jettySize=auto;html=1;entryX=0.5;entryY=1;entryDx=0;entryDy=0;entryPerimeter=0;exitX=1;exitY=0.5;exitDx=0;exitDy=0;exitPerimeter=0;" parent="1" source="jja5alJUXIAyAUdd--PY-46" target="jja5alJUXIAyAUdd--PY-38" edge="1">
          <mxGeometry relative="1" as="geometry">
            <mxPoint x="900" y="636" as="sourcePoint" />
          </mxGeometry>
        </mxCell>
        <mxCell id="jja5alJUXIAyAUdd--PY-41" style="edgeStyle=orthogonalEdgeStyle;rounded=0;orthogonalLoop=1;jettySize=auto;html=1;entryX=1;entryY=0.5;entryDx=0;entryDy=0;entryPerimeter=0;exitX=1;exitY=0.5;exitDx=0;exitDy=0;exitPerimeter=0;" parent="1" source="jja5alJUXIAyAUdd--PY-55" target="jja5alJUXIAyAUdd--PY-38" edge="1">
          <mxGeometry relative="1" as="geometry">
            <mxPoint x="950" y="786" as="sourcePoint" />
          </mxGeometry>
        </mxCell>
        <mxCell id="ajSq1QWMYXaIRyncZ6ZC-2" style="edgeStyle=orthogonalEdgeStyle;rounded=0;orthogonalLoop=1;jettySize=auto;html=1;exitX=1;exitY=0.5;exitDx=0;exitDy=0;exitPerimeter=0;" edge="1" parent="1" source="jja5alJUXIAyAUdd--PY-13">
          <mxGeometry relative="1" as="geometry">
            <mxPoint x="720" y="495" as="targetPoint" />
          </mxGeometry>
        </mxCell>
        <mxCell id="ajSq1QWMYXaIRyncZ6ZC-4" style="edgeStyle=orthogonalEdgeStyle;rounded=0;orthogonalLoop=1;jettySize=auto;html=1;exitX=0.5;exitY=0;exitDx=0;exitDy=0;exitPerimeter=0;entryX=0.5;entryY=1;entryDx=0;entryDy=0;entryPerimeter=0;" edge="1" parent="1" source="jja5alJUXIAyAUdd--PY-11" target="ajSq1QWMYXaIRyncZ6ZC-3">
          <mxGeometry relative="1" as="geometry" />
        </mxCell>
        <mxCell id="ajSq1QWMYXaIRyncZ6ZC-7" style="edgeStyle=orthogonalEdgeStyle;rounded=0;orthogonalLoop=1;jettySize=auto;html=1;exitX=0.5;exitY=0;exitDx=0;exitDy=0;exitPerimeter=0;entryX=0.5;entryY=1;entryDx=0;entryDy=0;entryPerimeter=0;" edge="1" parent="1" source="jja5alJUXIAyAUdd--PY-38" target="ajSq1QWMYXaIRyncZ6ZC-6">
          <mxGeometry relative="1" as="geometry" />
        </mxCell>
        <mxCell id="ajSq1QWMYXaIRyncZ6ZC-9" value="" style="edgeStyle=orthogonalEdgeStyle;rounded=0;orthogonalLoop=1;jettySize=auto;html=1;" edge="1" parent="1" source="ajSq1QWMYXaIRyncZ6ZC-6" target="ajSq1QWMYXaIRyncZ6ZC-8">
          <mxGeometry relative="1" as="geometry" />
        </mxCell>
        <mxCell id="ajSq1QWMYXaIRyncZ6ZC-23" style="edgeStyle=orthogonalEdgeStyle;rounded=0;orthogonalLoop=1;jettySize=auto;html=1;exitX=0.5;exitY=0;exitDx=0;exitDy=0;exitPerimeter=0;entryX=0.5;entryY=0;entryDx=0;entryDy=0;entryPerimeter=0;" edge="1" parent="1" source="ajSq1QWMYXaIRyncZ6ZC-10" target="jja5alJUXIAyAUdd--PY-3">
          <mxGeometry relative="1" as="geometry">
            <Array as="points">
              <mxPoint x="1215" y="-20" />
              <mxPoint x="450" y="-20" />
            </Array>
          </mxGeometry>
        </mxCell>
        <mxCell id="ajSq1QWMYXaIRyncZ6ZC-24" style="edgeStyle=orthogonalEdgeStyle;rounded=0;orthogonalLoop=1;jettySize=auto;html=1;exitX=0;exitY=0.5;exitDx=0;exitDy=0;exitPerimeter=0;" edge="1" parent="1" source="ajSq1QWMYXaIRyncZ6ZC-3" target="jja5alJUXIAyAUdd--PY-13">
          <mxGeometry relative="1" as="geometry" />
        </mxCell>
      </root>
    </mxGraphModel>
  </diagram>
  <diagram id="kpRmsLxLycuJl__epjuG" name="mindmap">
    <mxGraphModel dx="946" dy="526" grid="1" gridSize="10" guides="1" tooltips="1" connect="1" arrows="1" fold="1" page="1" pageScale="1" pageWidth="850" pageHeight="1100" math="0" shadow="0">
      <root>
        <mxCell id="8tqudO73Z4HLLYHnMug_-0" />
        <mxCell id="8tqudO73Z4HLLYHnMug_-1" parent="8tqudO73Z4HLLYHnMug_-0" />
        <mxCell id="97Q479K4r1Qtypzh9_Iu-0" value="" style="edgeStyle=none;rounded=0;jumpStyle=none;html=1;shadow=0;labelBackgroundColor=none;startArrow=none;startFill=0;endArrow=classic;endFill=1;jettySize=auto;orthogonalLoop=1;strokeColor=#2F5B7C;strokeWidth=3;fontFamily=Helvetica;fontSize=16;fontColor=#23445D;spacing=5;exitX=0.305;exitY=-0.007;exitDx=0;exitDy=0;exitPerimeter=0;" edge="1" parent="8tqudO73Z4HLLYHnMug_-1" source="97Q479K4r1Qtypzh9_Iu-4" target="97Q479K4r1Qtypzh9_Iu-19">
          <mxGeometry relative="1" as="geometry" />
        </mxCell>
        <mxCell id="97Q479K4r1Qtypzh9_Iu-1" value="" style="edgeStyle=none;rounded=0;jumpStyle=none;html=1;shadow=0;labelBackgroundColor=none;startArrow=none;startFill=0;endArrow=classic;endFill=1;jettySize=auto;orthogonalLoop=1;strokeColor=#2F5B7C;strokeWidth=3;fontFamily=Helvetica;fontSize=16;fontColor=#23445D;spacing=5;" edge="1" parent="8tqudO73Z4HLLYHnMug_-1" source="97Q479K4r1Qtypzh9_Iu-4" target="97Q479K4r1Qtypzh9_Iu-26">
          <mxGeometry relative="1" as="geometry" />
        </mxCell>
        <mxCell id="97Q479K4r1Qtypzh9_Iu-2" value="" style="edgeStyle=none;rounded=0;jumpStyle=none;html=1;shadow=0;labelBackgroundColor=none;startArrow=none;startFill=0;endArrow=classic;endFill=1;jettySize=auto;orthogonalLoop=1;strokeColor=#2F5B7C;strokeWidth=3;fontFamily=Helvetica;fontSize=16;fontColor=#23445D;spacing=5;" edge="1" parent="8tqudO73Z4HLLYHnMug_-1" source="97Q479K4r1Qtypzh9_Iu-4" target="97Q479K4r1Qtypzh9_Iu-15">
          <mxGeometry relative="1" as="geometry" />
        </mxCell>
        <mxCell id="97Q479K4r1Qtypzh9_Iu-3" value="" style="edgeStyle=none;rounded=0;jumpStyle=none;html=1;shadow=0;labelBackgroundColor=none;startArrow=none;startFill=0;endArrow=classic;endFill=1;jettySize=auto;orthogonalLoop=1;strokeColor=#2F5B7C;strokeWidth=3;fontFamily=Helvetica;fontSize=16;fontColor=#23445D;spacing=5;" edge="1" parent="8tqudO73Z4HLLYHnMug_-1" source="97Q479K4r1Qtypzh9_Iu-4" target="97Q479K4r1Qtypzh9_Iu-8">
          <mxGeometry relative="1" as="geometry" />
        </mxCell>
        <mxCell id="97Q479K4r1Qtypzh9_Iu-4" value="User Story" style="rounded=1;whiteSpace=wrap;html=1;shadow=0;labelBackgroundColor=none;strokeColor=none;strokeWidth=3;fillColor=#2F5B7C;fontFamily=Helvetica;fontSize=16;fontColor=#FFFFFF;align=center;fontStyle=1;spacing=5;arcSize=7;perimeterSpacing=2;" vertex="1" parent="8tqudO73Z4HLLYHnMug_-1">
          <mxGeometry x="501" y="350" width="150" height="70" as="geometry" />
        </mxCell>
        <mxCell id="97Q479K4r1Qtypzh9_Iu-5" value="" style="edgeStyle=none;rounded=1;jumpStyle=none;html=1;shadow=0;labelBackgroundColor=none;startArrow=none;startFill=0;jettySize=auto;orthogonalLoop=1;strokeColor=#E85642;strokeWidth=3;fontFamily=Helvetica;fontSize=14;fontColor=#FFFFFF;spacing=5;fontStyle=1;fillColor=#b0e3e6;" edge="1" parent="8tqudO73Z4HLLYHnMug_-1" source="97Q479K4r1Qtypzh9_Iu-8" target="97Q479K4r1Qtypzh9_Iu-11">
          <mxGeometry relative="1" as="geometry" />
        </mxCell>
        <mxCell id="97Q479K4r1Qtypzh9_Iu-6" value="" style="edgeStyle=none;rounded=1;jumpStyle=none;html=1;shadow=0;labelBackgroundColor=none;startArrow=none;startFill=0;jettySize=auto;orthogonalLoop=1;strokeColor=#E85642;strokeWidth=3;fontFamily=Helvetica;fontSize=14;fontColor=#FFFFFF;spacing=5;fontStyle=1;fillColor=#b0e3e6;entryX=1;entryY=0.5;entryDx=0;entryDy=0;" edge="1" parent="8tqudO73Z4HLLYHnMug_-1" source="97Q479K4r1Qtypzh9_Iu-8" target="97Q479K4r1Qtypzh9_Iu-10">
          <mxGeometry relative="1" as="geometry">
            <mxPoint x="252" y="556" as="targetPoint" />
          </mxGeometry>
        </mxCell>
        <mxCell id="97Q479K4r1Qtypzh9_Iu-7" value="" style="edgeStyle=none;rounded=1;jumpStyle=none;html=1;shadow=0;labelBackgroundColor=none;startArrow=none;startFill=0;jettySize=auto;orthogonalLoop=1;strokeColor=#E85642;strokeWidth=3;fontFamily=Helvetica;fontSize=14;fontColor=#FFFFFF;spacing=5;fontStyle=1;fillColor=#b0e3e6;" edge="1" parent="8tqudO73Z4HLLYHnMug_-1" source="97Q479K4r1Qtypzh9_Iu-8" target="97Q479K4r1Qtypzh9_Iu-9">
          <mxGeometry relative="1" as="geometry" />
        </mxCell>
        <mxCell id="97Q479K4r1Qtypzh9_Iu-8" value="Ci Pipeline" style="rounded=1;whiteSpace=wrap;html=1;shadow=0;labelBackgroundColor=none;strokeColor=none;strokeWidth=3;fillColor=#e85642;fontFamily=Helvetica;fontSize=14;fontColor=#FFFFFF;align=center;spacing=5;fontStyle=1;arcSize=7;perimeterSpacing=2;" vertex="1" parent="8tqudO73Z4HLLYHnMug_-1">
          <mxGeometry x="420" y="510" width="150" height="60" as="geometry" />
        </mxCell>
        <mxCell id="97Q479K4r1Qtypzh9_Iu-9" value="Build" style="rounded=1;whiteSpace=wrap;html=1;shadow=0;labelBackgroundColor=none;strokeColor=none;strokeWidth=3;fillColor=#f08e81;fontFamily=Helvetica;fontSize=14;fontColor=#FFFFFF;align=center;spacing=5;fontStyle=0;arcSize=7;perimeterSpacing=2;" vertex="1" parent="8tqudO73Z4HLLYHnMug_-1">
          <mxGeometry x="430" y="660" width="150" height="60" as="geometry" />
        </mxCell>
        <mxCell id="97Q479K4r1Qtypzh9_Iu-10" value="Deploy" style="rounded=1;whiteSpace=wrap;html=1;shadow=0;labelBackgroundColor=none;strokeColor=none;strokeWidth=3;fillColor=#f08e81;fontFamily=Helvetica;fontSize=14;fontColor=#FFFFFF;align=center;spacing=5;fontStyle=0;arcSize=7;perimeterSpacing=2;" vertex="1" parent="8tqudO73Z4HLLYHnMug_-1">
          <mxGeometry x="220" y="620" width="150" height="60" as="geometry" />
        </mxCell>
        <mxCell id="97Q479K4r1Qtypzh9_Iu-11" value="Automatic Tests" style="rounded=1;whiteSpace=wrap;html=1;shadow=0;labelBackgroundColor=none;strokeColor=none;strokeWidth=3;fillColor=#f08e81;fontFamily=Helvetica;fontSize=14;fontColor=#FFFFFF;align=center;spacing=5;fontStyle=0;arcSize=7;perimeterSpacing=2;" vertex="1" parent="8tqudO73Z4HLLYHnMug_-1">
          <mxGeometry x="170" y="490" width="150" height="60" as="geometry" />
        </mxCell>
        <mxCell id="97Q479K4r1Qtypzh9_Iu-12" value="" style="edgeStyle=none;rounded=0;jumpStyle=none;html=1;shadow=0;labelBackgroundColor=none;startArrow=none;startFill=0;endArrow=classic;endFill=1;jettySize=auto;orthogonalLoop=1;strokeColor=#1699D3;strokeWidth=3;fontFamily=Helvetica;fontSize=14;fontColor=#FFFFFF;spacing=5;" edge="1" parent="8tqudO73Z4HLLYHnMug_-1" source="97Q479K4r1Qtypzh9_Iu-15" target="97Q479K4r1Qtypzh9_Iu-18">
          <mxGeometry relative="1" as="geometry" />
        </mxCell>
        <mxCell id="97Q479K4r1Qtypzh9_Iu-13" value="" style="edgeStyle=none;rounded=0;jumpStyle=none;html=1;shadow=0;labelBackgroundColor=none;startArrow=none;startFill=0;endArrow=classic;endFill=1;jettySize=auto;orthogonalLoop=1;strokeColor=#1699D3;strokeWidth=3;fontFamily=Helvetica;fontSize=14;fontColor=#FFFFFF;spacing=5;" edge="1" parent="8tqudO73Z4HLLYHnMug_-1" source="97Q479K4r1Qtypzh9_Iu-15" target="97Q479K4r1Qtypzh9_Iu-17">
          <mxGeometry relative="1" as="geometry" />
        </mxCell>
        <mxCell id="97Q479K4r1Qtypzh9_Iu-14" value="" style="edgeStyle=none;rounded=0;jumpStyle=none;html=1;shadow=0;labelBackgroundColor=none;startArrow=none;startFill=0;endArrow=classic;endFill=1;jettySize=auto;orthogonalLoop=1;strokeColor=#1699D3;strokeWidth=3;fontFamily=Helvetica;fontSize=14;fontColor=#FFFFFF;spacing=5;" edge="1" parent="8tqudO73Z4HLLYHnMug_-1" source="97Q479K4r1Qtypzh9_Iu-15" target="97Q479K4r1Qtypzh9_Iu-16">
          <mxGeometry relative="1" as="geometry" />
        </mxCell>
        <mxCell id="97Q479K4r1Qtypzh9_Iu-15" value="Developer" style="rounded=1;whiteSpace=wrap;html=1;shadow=0;labelBackgroundColor=none;strokeColor=none;strokeWidth=3;fillColor=#1699d3;fontFamily=Helvetica;fontSize=14;fontColor=#FFFFFF;align=center;spacing=5;fontStyle=1;arcSize=7;perimeterSpacing=2;" vertex="1" parent="8tqudO73Z4HLLYHnMug_-1">
          <mxGeometry x="670" y="500" width="150" height="60" as="geometry" />
        </mxCell>
        <mxCell id="97Q479K4r1Qtypzh9_Iu-16" value="Develop" style="rounded=1;whiteSpace=wrap;html=1;shadow=0;labelBackgroundColor=none;strokeColor=none;strokeWidth=3;fillColor=#64bbe2;fontFamily=Helvetica;fontSize=14;fontColor=#FFFFFF;align=center;spacing=5;arcSize=7;perimeterSpacing=2;" vertex="1" parent="8tqudO73Z4HLLYHnMug_-1">
          <mxGeometry x="890" y="510" width="150" height="60" as="geometry" />
        </mxCell>
        <mxCell id="97Q479K4r1Qtypzh9_Iu-17" value="Unit Test" style="rounded=1;whiteSpace=wrap;html=1;shadow=0;labelBackgroundColor=none;strokeColor=none;strokeWidth=3;fillColor=#64bbe2;fontFamily=Helvetica;fontSize=14;fontColor=#FFFFFF;align=center;spacing=5;arcSize=7;perimeterSpacing=2;" vertex="1" parent="8tqudO73Z4HLLYHnMug_-1">
          <mxGeometry x="830" y="630" width="150" height="60" as="geometry" />
        </mxCell>
        <mxCell id="97Q479K4r1Qtypzh9_Iu-18" value="Pull" style="rounded=1;whiteSpace=wrap;html=1;shadow=0;labelBackgroundColor=none;strokeColor=none;strokeWidth=3;fillColor=#64bbe2;fontFamily=Helvetica;fontSize=14;fontColor=#FFFFFF;align=center;spacing=5;arcSize=7;perimeterSpacing=2;" vertex="1" parent="8tqudO73Z4HLLYHnMug_-1">
          <mxGeometry x="630" y="660" width="150" height="60" as="geometry" />
        </mxCell>
        <mxCell id="97Q479K4r1Qtypzh9_Iu-19" value="Product Owner" style="rounded=1;whiteSpace=wrap;html=1;shadow=0;labelBackgroundColor=none;strokeColor=none;strokeWidth=3;fillColor=#F08705;fontFamily=Helvetica;fontSize=14;fontColor=#FFFFFF;align=center;spacing=5;fontStyle=1;arcSize=7;perimeterSpacing=2;" vertex="1" parent="8tqudO73Z4HLLYHnMug_-1">
          <mxGeometry x="390" y="200" width="150" height="60" as="geometry" />
        </mxCell>
        <mxCell id="97Q479K4r1Qtypzh9_Iu-20" value="Validate" style="rounded=1;whiteSpace=wrap;html=1;shadow=0;labelBackgroundColor=none;strokeColor=none;strokeWidth=3;fillColor=#f5af58;fontFamily=Helvetica;fontSize=14;fontColor=#FFFFFF;align=center;spacing=5;arcSize=7;perimeterSpacing=2;" vertex="1" parent="8tqudO73Z4HLLYHnMug_-1">
          <mxGeometry x="430" y="90" width="150" height="60" as="geometry" />
        </mxCell>
        <mxCell id="97Q479K4r1Qtypzh9_Iu-21" value="" style="edgeStyle=none;rounded=0;jumpStyle=none;html=1;shadow=0;labelBackgroundColor=none;startArrow=none;startFill=0;endArrow=classic;endFill=1;jettySize=auto;orthogonalLoop=1;strokeColor=#F08705;strokeWidth=3;fontFamily=Helvetica;fontSize=14;fontColor=#FFFFFF;spacing=5;" edge="1" parent="8tqudO73Z4HLLYHnMug_-1" source="97Q479K4r1Qtypzh9_Iu-19" target="97Q479K4r1Qtypzh9_Iu-20">
          <mxGeometry relative="1" as="geometry" />
        </mxCell>
        <mxCell id="97Q479K4r1Qtypzh9_Iu-22" value="Groom" style="rounded=1;whiteSpace=wrap;html=1;shadow=0;labelBackgroundColor=none;strokeColor=none;strokeWidth=3;fillColor=#f5af58;fontFamily=Helvetica;fontSize=14;fontColor=#FFFFFF;align=center;spacing=5;arcSize=7;perimeterSpacing=2;" vertex="1" parent="8tqudO73Z4HLLYHnMug_-1">
          <mxGeometry x="240" y="60" width="150" height="60" as="geometry" />
        </mxCell>
        <mxCell id="97Q479K4r1Qtypzh9_Iu-23" value="" style="edgeStyle=none;rounded=0;jumpStyle=none;html=1;shadow=0;labelBackgroundColor=none;startArrow=none;startFill=0;endArrow=classic;endFill=1;jettySize=auto;orthogonalLoop=1;strokeColor=#F08705;strokeWidth=3;fontFamily=Helvetica;fontSize=14;fontColor=#FFFFFF;spacing=5;" edge="1" parent="8tqudO73Z4HLLYHnMug_-1" source="97Q479K4r1Qtypzh9_Iu-19" target="97Q479K4r1Qtypzh9_Iu-22">
          <mxGeometry relative="1" as="geometry" />
        </mxCell>
        <mxCell id="97Q479K4r1Qtypzh9_Iu-24" value="Define" style="rounded=1;whiteSpace=wrap;html=1;shadow=0;labelBackgroundColor=none;strokeColor=none;strokeWidth=3;fillColor=#f5af58;fontFamily=Helvetica;fontSize=14;fontColor=#FFFFFF;align=center;spacing=5;arcSize=7;perimeterSpacing=2;" vertex="1" parent="8tqudO73Z4HLLYHnMug_-1">
          <mxGeometry x="180" y="150" width="150" height="60" as="geometry" />
        </mxCell>
        <mxCell id="97Q479K4r1Qtypzh9_Iu-25" value="" style="edgeStyle=none;rounded=0;jumpStyle=none;html=1;shadow=0;labelBackgroundColor=none;startArrow=none;startFill=0;endArrow=classic;endFill=1;jettySize=auto;orthogonalLoop=1;strokeColor=#F08705;strokeWidth=3;fontFamily=Helvetica;fontSize=14;fontColor=#FFFFFF;spacing=5;" edge="1" parent="8tqudO73Z4HLLYHnMug_-1" source="97Q479K4r1Qtypzh9_Iu-19" target="97Q479K4r1Qtypzh9_Iu-24">
          <mxGeometry relative="1" as="geometry" />
        </mxCell>
        <mxCell id="97Q479K4r1Qtypzh9_Iu-26" value="Scrum Master" style="rounded=1;whiteSpace=wrap;html=1;shadow=0;labelBackgroundColor=none;strokeColor=none;strokeWidth=3;fillColor=#12aab5;fontFamily=Helvetica;fontSize=14;fontColor=#FFFFFF;align=center;spacing=5;fontStyle=1;arcSize=7;perimeterSpacing=2;" vertex="1" parent="8tqudO73Z4HLLYHnMug_-1">
          <mxGeometry x="760" y="359.9999999999999" width="150" height="60" as="geometry" />
        </mxCell>
        <mxCell id="97Q479K4r1Qtypzh9_Iu-27" value="Resolve Impediment" style="rounded=1;whiteSpace=wrap;html=1;shadow=0;labelBackgroundColor=none;strokeColor=none;strokeWidth=3;fillColor=#61c6ce;fontFamily=Helvetica;fontSize=14;fontColor=#FFFFFF;align=center;spacing=5;fontStyle=0;arcSize=7;perimeterSpacing=2;" vertex="1" parent="8tqudO73Z4HLLYHnMug_-1">
          <mxGeometry x="960" y="430" width="150" height="60" as="geometry" />
        </mxCell>
        <mxCell id="97Q479K4r1Qtypzh9_Iu-28" value="" style="edgeStyle=none;rounded=1;jumpStyle=none;html=1;shadow=0;labelBackgroundColor=none;startArrow=none;startFill=0;jettySize=auto;orthogonalLoop=1;strokeColor=#12AAB5;strokeWidth=3;fontFamily=Helvetica;fontSize=14;fontColor=#FFFFFF;spacing=5;fontStyle=1;fillColor=#b0e3e6;" edge="1" parent="8tqudO73Z4HLLYHnMug_-1" source="97Q479K4r1Qtypzh9_Iu-26" target="97Q479K4r1Qtypzh9_Iu-27">
          <mxGeometry relative="1" as="geometry" />
        </mxCell>
        <mxCell id="97Q479K4r1Qtypzh9_Iu-29" value="Monitor" style="rounded=1;whiteSpace=wrap;html=1;shadow=0;labelBackgroundColor=none;strokeColor=none;strokeWidth=3;fillColor=#61c6ce;fontFamily=Helvetica;fontSize=14;fontColor=#FFFFFF;align=center;spacing=5;fontStyle=0;arcSize=7;perimeterSpacing=2;" vertex="1" parent="8tqudO73Z4HLLYHnMug_-1">
          <mxGeometry x="1010" y="320" width="150" height="60" as="geometry" />
        </mxCell>
        <mxCell id="97Q479K4r1Qtypzh9_Iu-30" value="" style="edgeStyle=none;rounded=1;jumpStyle=none;html=1;shadow=0;labelBackgroundColor=none;startArrow=none;startFill=0;jettySize=auto;orthogonalLoop=1;strokeColor=#12AAB5;strokeWidth=3;fontFamily=Helvetica;fontSize=14;fontColor=#FFFFFF;spacing=5;fontStyle=1;fillColor=#b0e3e6;" edge="1" parent="8tqudO73Z4HLLYHnMug_-1" source="97Q479K4r1Qtypzh9_Iu-26" target="97Q479K4r1Qtypzh9_Iu-29">
          <mxGeometry relative="1" as="geometry" />
        </mxCell>
        <mxCell id="97Q479K4r1Qtypzh9_Iu-31" value="Plan" style="rounded=1;whiteSpace=wrap;html=1;shadow=0;labelBackgroundColor=none;strokeColor=none;strokeWidth=3;fillColor=#61c6ce;fontFamily=Helvetica;fontSize=14;fontColor=#FFFFFF;align=center;spacing=5;fontStyle=0;arcSize=7;perimeterSpacing=2;" vertex="1" parent="8tqudO73Z4HLLYHnMug_-1">
          <mxGeometry x="880" y="240" width="150" height="60" as="geometry" />
        </mxCell>
        <mxCell id="97Q479K4r1Qtypzh9_Iu-32" value="" style="edgeStyle=none;rounded=1;jumpStyle=none;html=1;shadow=0;labelBackgroundColor=none;startArrow=none;startFill=0;jettySize=auto;orthogonalLoop=1;strokeColor=#12AAB5;strokeWidth=3;fontFamily=Helvetica;fontSize=14;fontColor=#FFFFFF;spacing=5;fontStyle=1;fillColor=#b0e3e6;" edge="1" parent="8tqudO73Z4HLLYHnMug_-1" source="97Q479K4r1Qtypzh9_Iu-26" target="97Q479K4r1Qtypzh9_Iu-31">
          <mxGeometry relative="1" as="geometry" />
        </mxCell>
        <mxCell id="97Q479K4r1Qtypzh9_Iu-33" value="" style="edgeStyle=none;rounded=0;jumpStyle=none;html=1;shadow=0;labelBackgroundColor=none;startArrow=none;startFill=0;endArrow=classic;endFill=1;jettySize=auto;orthogonalLoop=1;strokeColor=#1699D3;strokeWidth=3;fontFamily=Helvetica;fontSize=14;fontColor=#FFFFFF;spacing=5;" edge="1" parent="8tqudO73Z4HLLYHnMug_-1" source="97Q479K4r1Qtypzh9_Iu-36" target="97Q479K4r1Qtypzh9_Iu-39">
          <mxGeometry relative="1" as="geometry" />
        </mxCell>
        <mxCell id="97Q479K4r1Qtypzh9_Iu-34" value="" style="edgeStyle=none;rounded=0;jumpStyle=none;html=1;shadow=0;labelBackgroundColor=none;startArrow=none;startFill=0;endArrow=classic;endFill=1;jettySize=auto;orthogonalLoop=1;strokeColor=#1699D3;strokeWidth=3;fontFamily=Helvetica;fontSize=14;fontColor=#FFFFFF;spacing=5;" edge="1" parent="8tqudO73Z4HLLYHnMug_-1" source="97Q479K4r1Qtypzh9_Iu-36" target="97Q479K4r1Qtypzh9_Iu-38">
          <mxGeometry relative="1" as="geometry" />
        </mxCell>
        <mxCell id="97Q479K4r1Qtypzh9_Iu-35" value="" style="edgeStyle=none;rounded=0;jumpStyle=none;html=1;shadow=0;labelBackgroundColor=none;startArrow=none;startFill=0;endArrow=classic;endFill=1;jettySize=auto;orthogonalLoop=1;strokeColor=#1699D3;strokeWidth=3;fontFamily=Helvetica;fontSize=14;fontColor=#FFFFFF;spacing=5;" edge="1" parent="8tqudO73Z4HLLYHnMug_-1" source="97Q479K4r1Qtypzh9_Iu-36" target="97Q479K4r1Qtypzh9_Iu-37">
          <mxGeometry relative="1" as="geometry" />
        </mxCell>
        <mxCell id="97Q479K4r1Qtypzh9_Iu-36" value="Tester" style="rounded=1;whiteSpace=wrap;html=1;shadow=0;labelBackgroundColor=none;strokeColor=none;strokeWidth=3;fillColor=#1699d3;fontFamily=Helvetica;fontSize=14;fontColor=#FFFFFF;align=center;spacing=5;fontStyle=1;arcSize=7;perimeterSpacing=2;" vertex="1" parent="8tqudO73Z4HLLYHnMug_-1">
          <mxGeometry x="240" y="320" width="150" height="60" as="geometry" />
        </mxCell>
        <mxCell id="97Q479K4r1Qtypzh9_Iu-37" value="Manual Integration Test" style="rounded=1;whiteSpace=wrap;html=1;shadow=0;labelBackgroundColor=none;strokeColor=none;strokeWidth=3;fillColor=#64bbe2;fontFamily=Helvetica;fontSize=14;fontColor=#FFFFFF;align=center;spacing=5;arcSize=7;perimeterSpacing=2;" vertex="1" parent="8tqudO73Z4HLLYHnMug_-1">
          <mxGeometry x="90" y="220" width="150" height="60" as="geometry" />
        </mxCell>
        <mxCell id="97Q479K4r1Qtypzh9_Iu-38" value="Automate tests" style="rounded=1;whiteSpace=wrap;html=1;shadow=0;labelBackgroundColor=none;strokeColor=none;strokeWidth=3;fillColor=#64bbe2;fontFamily=Helvetica;fontSize=14;fontColor=#FFFFFF;align=center;spacing=5;arcSize=7;perimeterSpacing=2;" vertex="1" parent="8tqudO73Z4HLLYHnMug_-1">
          <mxGeometry x="20" y="310" width="150" height="60" as="geometry" />
        </mxCell>
        <mxCell id="97Q479K4r1Qtypzh9_Iu-39" value="Analysis" style="rounded=1;whiteSpace=wrap;html=1;shadow=0;labelBackgroundColor=none;strokeColor=none;strokeWidth=3;fillColor=#64bbe2;fontFamily=Helvetica;fontSize=14;fontColor=#FFFFFF;align=center;spacing=5;arcSize=7;perimeterSpacing=2;" vertex="1" parent="8tqudO73Z4HLLYHnMug_-1">
          <mxGeometry x="40" y="420" width="150" height="60" as="geometry" />
        </mxCell>
        <mxCell id="97Q479K4r1Qtypzh9_Iu-40" value="" style="edgeStyle=none;rounded=0;jumpStyle=none;html=1;shadow=0;labelBackgroundColor=none;startArrow=none;startFill=0;endArrow=classic;endFill=1;jettySize=auto;orthogonalLoop=1;strokeColor=#2F5B7C;strokeWidth=3;fontFamily=Helvetica;fontSize=16;fontColor=#23445D;spacing=5;entryX=1;entryY=0.75;entryDx=0;entryDy=0;exitX=0;exitY=0.5;exitDx=0;exitDy=0;" edge="1" parent="8tqudO73Z4HLLYHnMug_-1" source="97Q479K4r1Qtypzh9_Iu-4" target="97Q479K4r1Qtypzh9_Iu-36">
          <mxGeometry relative="1" as="geometry">
            <mxPoint x="500" y="350" as="sourcePoint" />
            <mxPoint x="364.99690058479524" y="404" as="targetPoint" />
          </mxGeometry>
        </mxCell>
        <mxCell id="97Q479K4r1Qtypzh9_Iu-41" value="Security" style="rounded=1;whiteSpace=wrap;html=1;shadow=0;labelBackgroundColor=none;strokeColor=none;strokeWidth=3;fillColor=#e85642;fontFamily=Helvetica;fontSize=14;fontColor=#FFFFFF;align=center;spacing=5;fontStyle=1;arcSize=7;perimeterSpacing=2;" vertex="1" parent="8tqudO73Z4HLLYHnMug_-1">
          <mxGeometry x="630" y="220" width="150" height="60" as="geometry" />
        </mxCell>
        <mxCell id="97Q479K4r1Qtypzh9_Iu-42" value="" style="edgeStyle=none;rounded=0;jumpStyle=none;html=1;shadow=0;labelBackgroundColor=none;startArrow=none;startFill=0;endArrow=classic;endFill=1;jettySize=auto;orthogonalLoop=1;strokeColor=#2F5B7C;strokeWidth=3;fontFamily=Helvetica;fontSize=16;fontColor=#23445D;spacing=5;entryX=0.25;entryY=1;entryDx=0;entryDy=0;" edge="1" parent="8tqudO73Z4HLLYHnMug_-1" target="97Q479K4r1Qtypzh9_Iu-41">
          <mxGeometry relative="1" as="geometry">
            <mxPoint x="620" y="348" as="sourcePoint" />
            <mxPoint x="705" y="344.0002702702702" as="targetPoint" />
          </mxGeometry>
        </mxCell>
        <mxCell id="97Q479K4r1Qtypzh9_Iu-43" value="Build" style="rounded=1;whiteSpace=wrap;html=1;shadow=0;labelBackgroundColor=none;strokeColor=none;strokeWidth=3;fillColor=#f08e81;fontFamily=Helvetica;fontSize=14;fontColor=#FFFFFF;align=center;spacing=5;fontStyle=0;arcSize=7;perimeterSpacing=2;" vertex="1" parent="8tqudO73Z4HLLYHnMug_-1">
          <mxGeometry x="600" y="70" width="150" height="60" as="geometry" />
        </mxCell>
        <mxCell id="97Q479K4r1Qtypzh9_Iu-44" value="Build" style="rounded=1;whiteSpace=wrap;html=1;shadow=0;labelBackgroundColor=none;strokeColor=none;strokeWidth=3;fillColor=#f08e81;fontFamily=Helvetica;fontSize=14;fontColor=#FFFFFF;align=center;spacing=5;fontStyle=0;arcSize=7;perimeterSpacing=2;" vertex="1" parent="8tqudO73Z4HLLYHnMug_-1">
          <mxGeometry x="770" y="120" width="150" height="60" as="geometry" />
        </mxCell>
        <mxCell id="97Q479K4r1Qtypzh9_Iu-45" value="" style="edgeStyle=none;rounded=1;jumpStyle=none;html=1;shadow=0;labelBackgroundColor=none;startArrow=none;startFill=0;jettySize=auto;orthogonalLoop=1;strokeColor=#E85642;strokeWidth=3;fontFamily=Helvetica;fontSize=14;fontColor=#FFFFFF;spacing=5;fontStyle=1;fillColor=#b0e3e6;entryX=0.5;entryY=1;entryDx=0;entryDy=0;exitX=0.5;exitY=0;exitDx=0;exitDy=0;" edge="1" parent="8tqudO73Z4HLLYHnMug_-1" source="97Q479K4r1Qtypzh9_Iu-41" target="97Q479K4r1Qtypzh9_Iu-43">
          <mxGeometry relative="1" as="geometry">
            <mxPoint x="680" y="210" as="sourcePoint" />
            <mxPoint x="629.9999999999998" y="210" as="targetPoint" />
          </mxGeometry>
        </mxCell>
        <mxCell id="97Q479K4r1Qtypzh9_Iu-46" value="" style="edgeStyle=none;rounded=1;jumpStyle=none;html=1;shadow=0;labelBackgroundColor=none;startArrow=none;startFill=0;jettySize=auto;orthogonalLoop=1;strokeColor=#E85642;strokeWidth=3;fontFamily=Helvetica;fontSize=14;fontColor=#FFFFFF;spacing=5;fontStyle=1;fillColor=#b0e3e6;entryX=0.25;entryY=1;entryDx=0;entryDy=0;" edge="1" parent="8tqudO73Z4HLLYHnMug_-1" target="97Q479K4r1Qtypzh9_Iu-44">
          <mxGeometry relative="1" as="geometry">
            <mxPoint x="770" y="220" as="sourcePoint" />
            <mxPoint x="740" y="142.0000000000001" as="targetPoint" />
          </mxGeometry>
        </mxCell>
      </root>
    </mxGraphModel>
  </diagram>
</mxfile>
